<?xml version="1.0" encoding="UTF-8" standalone="no"?>
<!-- Created with Inkscape (http://www.inkscape.org/) -->
<svg
   xmlns:dc="http://purl.org/dc/elements/1.1/"
   xmlns:cc="http://web.resource.org/cc/"
   xmlns:rdf="http://www.w3.org/1999/02/22-rdf-syntax-ns#"
   xmlns:svg="http://www.w3.org/2000/svg"
   xmlns="http://www.w3.org/2000/svg"
   xmlns:sodipodi="http://sodipodi.sourceforge.net/DTD/sodipodi-0.dtd"
   xmlns:inkscape="http://www.inkscape.org/namespaces/inkscape"
   id="svg2211"
   sodipodi:version="0.32"
   inkscape:version="0.45.1"
   width="199"
   height="118"
   version="1.0"
   sodipodi:docbase="/home/romanov/Desktop"
   sodipodi:docname="FSTLOGO.svg.svg"
   inkscape:output_extension="org.inkscape.output.svg.inkscape">
  <metadata
     id="metadata2216">
    <rdf:RDF>
      <cc:Work
         rdf:about="">
        <dc:format>image/svg+xml</dc:format>
        <dc:type
           rdf:resource="http://purl.org/dc/dcmitype/StillImage" />
      </cc:Work>
    </rdf:RDF>
  </metadata>
  <defs
     id="defs2214" />
  <sodipodi:namedview
     inkscape:window-height="691"
     inkscape:window-width="1014"
     inkscape:pageshadow="2"
     inkscape:pageopacity="0.0"
     guidetolerance="10.0"
     gridtolerance="10.0"
     objecttolerance="10.0"
     borderopacity="1.0"
     bordercolor="#666666"
     pagecolor="#ffffff"
     id="base"
     showguides="true"
     inkscape:guide-bbox="true"
     inkscape:zoom="7.9999999"
     inkscape:cx="127.77582"
     inkscape:cy="37.254324"
     inkscape:window-x="0"
     inkscape:window-y="24"
     inkscape:current-layer="svg2211" />
  <path
     style="fill:#ffffff;fill-opacity:1;stroke:none;stroke-width:2.5;stroke-miterlimit:4;stroke-opacity:1"
     d="M -0.35355338,82.291107 L 198.697,82.291107 L 198.697,118 L -0.35355338,118 L -0.35355338,82.291107 z "
     id="rect2227" />
  <g
     id="g2301">
    <path
       id="rect8094"
       d="M -0.095885515,-1 L 199.40411,-1 L 199.40411,62.694176 L -0.095885515,62.694176 L -0.095885515,-1 z "
       style="fill:#fbe822;fill-opacity:1;stroke:none;stroke-width:0.5;stroke-linejoin:round;stroke-miterlimit:4;stroke-opacity:1" />
    <g
       id="g10153">
      <rect
         style="fill:#002255;fill-opacity:1;stroke:none;stroke-width:0.5;stroke-linejoin:round;stroke-miterlimit:4;stroke-dasharray:none;stroke-opacity:1"
         id="rect9083"
         width="199.48622"
         height="1.4142135"
         x="-0.082106829"
         y="57.465553" />
      <rect
         y="53.65115"
         x="-0.082106829"
         height="1.4142135"
         width="199.48622"
         id="rect9114"
         style="fill:#002255;fill-opacity:1;stroke:none;stroke-width:0.5;stroke-linejoin:round;stroke-miterlimit:4;stroke-dasharray:none;stroke-opacity:1" />
      <rect
         style="fill:#002255;fill-opacity:1;stroke:none;stroke-width:0.5;stroke-linejoin:round;stroke-miterlimit:4;stroke-dasharray:none;stroke-opacity:1"
         id="rect9116"
         width="199.48622"
         height="1.4142135"
         x="-0.082106829"
         y="49.836742" />
      <rect
         y="45.897339"
         x="-0.082106829"
         height="1.5392135"
         width="199.48622"
         id="rect9118"
         style="fill:#002255;fill-opacity:1;stroke:none;stroke-width:0.5;stroke-linejoin:round;stroke-miterlimit:4;stroke-dasharray:none;stroke-opacity:1" />
      <rect
         style="fill:#002255;fill-opacity:1;stroke:none;stroke-width:0.5;stroke-linejoin:round;stroke-miterlimit:4;stroke-dasharray:none;stroke-opacity:1"
         id="rect9120"
         width="199.48622"
         height="1.4142135"
         x="-0.082106829"
         y="42.207932" />
      <rect
         y="38.393528"
         x="-0.082106829"
         height="1.4142135"
         width="199.48622"
         id="rect9122"
         style="fill:#002255;fill-opacity:1;stroke:none;stroke-width:0.5;stroke-linejoin:round;stroke-miterlimit:4;stroke-dasharray:none;stroke-opacity:1" />
      <rect
         style="fill:#002255;fill-opacity:1;stroke:none;stroke-width:0.5;stroke-linejoin:round;stroke-miterlimit:4;stroke-dasharray:none;stroke-opacity:1"
         id="rect9124"
         width="199.48622"
         height="1.4142135"
         x="-0.082106829"
         y="34.579124" />
      <rect
         y="30.889717"
         x="-0.082106829"
         height="1.2892135"
         width="199.48622"
         id="rect9126"
         style="fill:#002255;fill-opacity:1;stroke:none;stroke-width:0.5;stroke-linejoin:round;stroke-miterlimit:4;stroke-dasharray:none;stroke-opacity:1" />
      <rect
         style="fill:#002255;fill-opacity:1;stroke:none;stroke-width:0.5;stroke-linejoin:round;stroke-miterlimit:4;stroke-dasharray:none;stroke-opacity:1"
         id="rect9128"
         width="199.48622"
         height="1.4142135"
         x="-0.082106829"
         y="26.950312" />
      <rect
         y="23.135906"
         x="-0.082106829"
         height="1.4142135"
         width="199.48622"
         id="rect9130"
         style="fill:#002255;fill-opacity:1;stroke:none;stroke-width:0.5;stroke-linejoin:round;stroke-miterlimit:4;stroke-dasharray:none;stroke-opacity:1" />
      <rect
         style="fill:#002255;fill-opacity:1;stroke:none;stroke-width:0.5;stroke-linejoin:round;stroke-miterlimit:4;stroke-dasharray:none;stroke-opacity:1"
         id="rect9132"
         width="199.61122"
         height="1.4142135"
         x="-0.20710683"
         y="19.321499" />
      <rect
         y="15.507088"
         x="-0.082106829"
         height="1.4142135"
         width="199.48622"
         id="rect9134"
         style="fill:#002255;fill-opacity:1;stroke:none;stroke-width:0.5;stroke-linejoin:round;stroke-miterlimit:4;stroke-dasharray:none;stroke-opacity:1" />
      <rect
         style="fill:#002255;fill-opacity:1;stroke:none;stroke-width:0.5;stroke-linejoin:round;stroke-miterlimit:4;stroke-dasharray:none;stroke-opacity:1"
         id="rect9136"
         width="199.48622"
         height="1.4142135"
         x="-0.082106829"
         y="11.692688" />
      <rect
         y="7.8782816"
         x="-0.082106829"
         height="1.4142135"
         width="199.48622"
         id="rect9140"
         style="fill:#002255;fill-opacity:1;stroke:none;stroke-width:0.5;stroke-linejoin:round;stroke-miterlimit:4;stroke-dasharray:none;stroke-opacity:1" />
      <rect
         style="fill:#002255;fill-opacity:1;stroke:none;stroke-width:0.5;stroke-linejoin:round;stroke-miterlimit:4;stroke-dasharray:none;stroke-opacity:1"
         id="rect9142"
         width="199.48622"
         height="1.4142135"
         x="-0.082106829"
         y="4.06387" />
      <rect
         y="0.24947071"
         x="-0.082106829"
         height="1.4142135"
         width="199.48622"
         id="rect9144"
         style="fill:#002255;fill-opacity:1;stroke:none;stroke-width:0.5;stroke-linejoin:round;stroke-miterlimit:4;stroke-dasharray:none;stroke-opacity:1" />
    </g>
    <path
       id="rect6126"
       d="M -0.25,60.878681 L 199.25,60.878681 L 199.25,82.500002 L -0.25,82.500002 L -0.25,60.878681 z "
       style="fill:#002255;fill-opacity:1;stroke:none;stroke-width:0.5;stroke-linejoin:round;stroke-miterlimit:4;stroke-opacity:1" />
    <path
       id="path10151"
       d="M 133.28963,-4.5062499 C 133.28963,2.8123053 113.88662,8.7520022 89.97934,8.7520022 C 66.072059,8.7520022 46.669048,2.8123053 46.669048,-4.5062499 C 46.669048,-11.824805 66.072059,-17.764502 89.97934,-17.764502 C 113.88662,-17.764502 133.28963,-11.824805 133.28963,-4.5062499 z "
       style="fill:#ffffff;fill-opacity:1;stroke:#000000;stroke-width:0.5;stroke-linejoin:round;stroke-miterlimit:4;stroke-opacity:1"
       transform="matrix(1.0350357,0,0,0.8363211,6.6005661,50.24029)" />
    <g
       id="g9085">
      <path
         style="fill:#ffffff;fill-opacity:1;fill-rule:evenodd;stroke:#000000;stroke-width:0.5;stroke-linecap:butt;stroke-linejoin:miter;stroke-miterlimit:4;stroke-dasharray:none;stroke-opacity:1"
         d="M 140.55921,66.927358 L 137.80921,76.552358 L 134.90388,76.552358 L 135.55921,71.427358 L 133.93421,71.427358 L 133.44049,76.552358 L 130.9771,76.552358 L 129.30921,66.927358 L 140.55921,66.927358 z "
         id="path7117"
         sodipodi:nodetypes="ccccccccc" />
      <path
         sodipodi:nodetypes="ccccccccc"
         id="path7097"
         d="M 58.978122,66.927358 L 61.728122,76.552358 L 64.633452,76.552358 L 63.978122,71.427358 L 65.603122,71.427358 L 66.09684,76.552358 L 68.560229,76.552358 L 70.228122,66.927358 L 58.978122,66.927358 z "
         style="fill:#ffffff;fill-opacity:1;fill-rule:evenodd;stroke:#000000;stroke-width:0.5;stroke-linecap:butt;stroke-linejoin:miter;stroke-miterlimit:4;stroke-dasharray:none;stroke-opacity:1" />
      <path
         style="fill:#ffffff;fill-opacity:1;fill-rule:evenodd;stroke:#000000;stroke-width:0.5;stroke-linecap:butt;stroke-linejoin:miter;stroke-miterlimit:4;stroke-dasharray:none;stroke-opacity:1"
         d="M 48.794044,66.828647 L 54.328277,76.365259 L 56.349724,76.453647 L 53.794044,71.328647 L 55.065486,71.461229 L 57.857302,76.453647 L 59.79036,76.453647 L 58.718215,66.828647 L 48.794044,66.828647 z "
         id="path6120"
         sodipodi:nodetypes="ccccccccc" />
      <path
         style="fill:#ffffff;fill-rule:evenodd;stroke:#000000;stroke-width:1px;stroke-linecap:butt;stroke-linejoin:round;stroke-opacity:1;fill-opacity:1"
         d="M 42.659314,64.660803 L 42.567639,43.819629 L 50.70557,48.827586 L 50.838504,68.088778 L 42.659314,64.660803 z "
         id="path2220"
         sodipodi:nodetypes="ccccc" />
      <path
         style="fill:#ffffff;fill-rule:evenodd;stroke:#000000;stroke-width:1px;stroke-linecap:butt;stroke-linejoin:round;stroke-opacity:1"
         d="M 52.526594,64.420495 L 52.564568,41.186002 L 59.450509,46.19396 L 60.076504,67.665777 L 52.526594,64.420495 z "
         id="path2222"
         sodipodi:nodetypes="ccccc" />
      <path
         style="fill:#ffffff;fill-opacity:1;fill-rule:evenodd;stroke:#000000;stroke-width:0.5;stroke-linecap:butt;stroke-linejoin:miter;stroke-miterlimit:4;stroke-dasharray:none;stroke-opacity:1"
         d="M 69.862005,66.927358 L 72.612005,76.552358 L 74.987005,76.552358 L 74.862005,71.427358 L 76.487005,71.427358 L 76.362005,76.552358 L 78.737005,76.552358 L 81.112005,66.927358 L 69.862005,66.927358 z "
         id="path6122"
         sodipodi:nodetypes="ccccccccc" />
      <path
         style="fill:#ffffff;fill-rule:evenodd;stroke:#000000;stroke-width:1px;stroke-linecap:butt;stroke-linejoin:round;stroke-opacity:1"
         d="M 70.019731,67.752803 L 62.469822,63.740798 L 62.286472,35.994695 L 69.485411,40.06366 L 70.019731,67.752803 z "
         id="path2224"
         sodipodi:nodetypes="ccccc" />
      <path
         style="fill:#002255;fill-rule:evenodd;stroke:#000000;stroke-width:1px;stroke-linecap:butt;stroke-linejoin:round;stroke-opacity:1"
         d="M 50.993278,68.225403 L 52.453444,64.329282 L 52.453444,41.14777 L 50.705137,48.483151 L 50.993278,68.225403 z "
         id="path2226"
         sodipodi:nodetypes="ccccc" />
      <path
         id="path2228"
         d="M 60.10341,67.648541 L 62.634281,63.665315 L 62.39862,35.874997 L 59.469651,46.209511 L 60.10341,67.648541 z "
         style="fill:#002255;fill-rule:evenodd;stroke:#000000;stroke-width:1px;stroke-linecap:butt;stroke-linejoin:round;stroke-opacity:1"
         sodipodi:nodetypes="ccccc" />
      <path
         sodipodi:nodetypes="ccccc"
         style="fill:#002255;fill-rule:evenodd;stroke:#000000;stroke-width:1px;stroke-linecap:butt;stroke-linejoin:round;stroke-opacity:1"
         d="M 70.050942,67.736332 L 73.368425,64.107961 L 72.911441,30.50995 L 69.534248,40.344464 L 70.050942,67.736332 z "
         id="path2230" />
      <path
         sodipodi:nodetypes="ccccccccc"
         id="path6124"
         d="M 81.493287,66.83897 L 84.243287,76.46397 L 86.618287,76.46397 L 86.493287,71.33897 L 88.118287,71.33897 L 87.993287,76.46397 L 90.368287,76.46397 L 92.743287,66.83897 L 81.493287,66.83897 z "
         style="fill:#ffffff;fill-opacity:1;fill-rule:evenodd;stroke:#000000;stroke-width:0.5;stroke-linecap:butt;stroke-linejoin:miter;stroke-miterlimit:4;stroke-dasharray:none;stroke-opacity:1" />
      <path
         sodipodi:nodetypes="ccccc"
         id="path2232"
         d="M 83.077761,67.42082 L 73.535949,63.630137 L 72.909954,30.572293 L 82.43278,39.510354 L 83.077761,67.42082 z "
         style="fill:#ffffff;fill-rule:evenodd;stroke:#000000;stroke-width:1px;stroke-linecap:butt;stroke-linejoin:round;stroke-opacity:1" />
      <path
         style="fill:#002255;fill-rule:evenodd;stroke:#000000;stroke-width:1px;stroke-linecap:butt;stroke-linejoin:round;stroke-opacity:1"
         d="M 89.385454,64.543627 L 83.135629,67.421298 L 82.494469,39.103501 L 89.558119,26.712613 L 89.385454,64.543627 z "
         id="path2234"
         sodipodi:nodetypes="ccccc" />
      <path
         style="fill:#ffffff;fill-opacity:1;fill-rule:evenodd;stroke:#000000;stroke-width:0.5;stroke-linecap:butt;stroke-linejoin:miter;stroke-miterlimit:4;stroke-dasharray:none;stroke-opacity:1"
         d="M 93.46967,66.828647 L 96.21967,76.453647 L 98.59467,76.453647 L 98.46967,71.328647 L 100.09467,71.328647 L 99.96967,76.453647 L 102.34467,76.453647 L 104.71967,66.828647 L 93.46967,66.828647 z "
         id="path6118"
         sodipodi:nodetypes="ccccccccc" />
      <path
         style="fill:#ffffff;fill-rule:evenodd;stroke:#000000;stroke-width:1px;stroke-linecap:butt;stroke-linejoin:round;stroke-opacity:1"
         d="M 89.246293,64.550605 L 99.181179,67.524121 L 99.705807,33.786771 L 89.635632,26.925772 L 89.246293,64.550605 z "
         id="path2236"
         sodipodi:nodetypes="ccccc" />
      <path
         sodipodi:nodetypes="ccccccccc"
         id="path7119"
         d="M 150.74329,66.828647 L 145.20905,76.365259 L 143.18761,76.453647 L 145.74329,71.328647 L 144.47185,71.461229 L 141.68003,76.453647 L 139.74697,76.453647 L 140.81912,66.828647 L 150.74329,66.828647 z "
         style="fill:#ffffff;fill-opacity:1;fill-rule:evenodd;stroke:#000000;stroke-width:0.5;stroke-linecap:butt;stroke-linejoin:miter;stroke-miterlimit:4;stroke-dasharray:none;stroke-opacity:1" />
      <path
         sodipodi:nodetypes="ccccc"
         id="path7101"
         d="M 146.37186,63.920495 L 146.33388,40.686002 L 139.44794,45.69396 L 138.82195,67.165777 L 146.37186,63.920495 z "
         style="fill:#ffffff;fill-rule:evenodd;stroke:#000000;stroke-width:1px;stroke-linecap:butt;stroke-linejoin:round;stroke-opacity:1" />
      <path
         sodipodi:nodetypes="ccccccccc"
         id="path7121"
         d="M 129.67533,66.927358 L 126.92533,76.552358 L 124.55033,76.552358 L 124.67533,71.427358 L 123.05033,71.427358 L 123.17533,76.552358 L 120.80033,76.552358 L 118.42533,66.927358 L 129.67533,66.927358 z "
         style="fill:#ffffff;fill-opacity:1;fill-rule:evenodd;stroke:#000000;stroke-width:0.5;stroke-linecap:butt;stroke-linejoin:miter;stroke-miterlimit:4;stroke-dasharray:none;stroke-opacity:1" />
      <path
         sodipodi:nodetypes="ccccc"
         id="path7103"
         d="M 128.87872,67.252803 L 136.42863,63.240798 L 136.61198,35.494695 L 129.41304,39.56366 L 128.87872,67.252803 z "
         style="fill:#ffffff;fill-rule:evenodd;stroke:#000000;stroke-width:1px;stroke-linecap:butt;stroke-linejoin:round;stroke-opacity:1" />
      <path
         style="fill:#ffffff;fill-opacity:1;fill-rule:evenodd;stroke:#000000;stroke-width:0.5;stroke-linecap:butt;stroke-linejoin:miter;stroke-miterlimit:4;stroke-dasharray:none;stroke-opacity:1"
         d="M 118.04404,66.83897 L 115.29404,76.46397 L 112.91904,76.46397 L 113.04404,71.33897 L 111.41904,71.33897 L 111.54404,76.46397 L 109.16904,76.46397 L 106.79404,66.83897 L 118.04404,66.83897 z "
         id="path7123"
         sodipodi:nodetypes="ccccccccc" />
      <path
         sodipodi:nodetypes="ccccc"
         id="path7105"
         d="M 147.90517,67.725403 L 146.44501,63.829282 L 146.44501,40.64777 L 148.19331,47.983151 L 147.90517,67.725403 z "
         style="fill:#002255;fill-rule:evenodd;stroke:#000000;stroke-width:1px;stroke-linecap:butt;stroke-linejoin:round;stroke-opacity:1" />
      <path
         sodipodi:nodetypes="ccccc"
         style="fill:#002255;fill-rule:evenodd;stroke:#000000;stroke-width:1px;stroke-linecap:butt;stroke-linejoin:round;stroke-opacity:1"
         d="M 138.79504,67.148541 L 136.26417,63.165315 L 136.49983,35.374997 L 139.4288,45.709511 L 138.79504,67.148541 z "
         id="path7107" />
      <path
         id="path7109"
         d="M 128.84751,67.236332 L 125.53002,63.607961 L 125.98701,30.00995 L 129.3642,39.844464 L 128.84751,67.236332 z "
         style="fill:#002255;fill-rule:evenodd;stroke:#000000;stroke-width:1px;stroke-linecap:butt;stroke-linejoin:round;stroke-opacity:1"
         sodipodi:nodetypes="ccccc" />
      <path
         style="fill:#ffffff;fill-rule:evenodd;stroke:#000000;stroke-width:1px;stroke-linecap:butt;stroke-linejoin:round;stroke-opacity:1"
         d="M 115.82069,66.92082 L 125.3625,63.130137 L 125.9885,30.072293 L 116.46567,39.010354 L 115.82069,66.92082 z "
         id="path7111"
         sodipodi:nodetypes="ccccc" />
      <path
         sodipodi:nodetypes="ccccc"
         id="path7113"
         d="M 109.513,64.043627 L 115.76282,66.921298 L 116.40398,38.603501 L 109.34033,26.212613 L 109.513,64.043627 z "
         style="fill:#002255;fill-rule:evenodd;stroke:#000000;stroke-width:1px;stroke-linecap:butt;stroke-linejoin:round;stroke-opacity:1" />
      <path
         sodipodi:nodetypes="ccccc"
         id="path7115"
         d="M 109.65216,64.050605 L 98.96727,67.524121 L 99.56764,33.786771 L 109.26282,26.425772 L 109.65216,64.050605 z "
         style="fill:#ffffff;fill-rule:evenodd;stroke:#000000;stroke-width:1px;stroke-linecap:butt;stroke-linejoin:round;stroke-opacity:1" />
      <path
         sodipodi:nodetypes="ccccc"
         id="path7099"
         d="M 156.23914,64.160803 L 156.33081,43.319629 L 148.19288,48.327586 L 148.05995,67.588778 L 156.23914,64.160803 z "
         style="fill:#ffffff;fill-opacity:1;fill-rule:evenodd;stroke:#000000;stroke-width:1px;stroke-linecap:butt;stroke-linejoin:round;stroke-opacity:1" />
    </g>
    <path
       id="path10171"
       d="M 185.47855,83.375 C 187.39115,84.319386 185.30103,85.812012 183.95287,85.310809 C 180.51593,85.361113 177.0771,85.367131 173.64135,85.445073 C 171.69949,86.623972 173.51417,89.35233 175.45927,88.782912 C 182.75736,89.063608 190.05545,89.344304 197.35355,89.625 C 198.93646,91.223403 198.46192,93.905797 198.15573,95.959315 C 198.15299,97.753785 196.49255,97.536408 195.26703,97.500287 C 184.57343,97.519597 173.87645,97.630219 163.18497,97.592294 C 161.16786,97.83068 160.95015,95.181166 159.0513,95.75 C 157.31872,95.75 155.58613,95.75 153.85355,95.75 C 153.61485,97.751412 151.43515,98.356806 149.7295,98.118596 C 143.46447,98.070125 137.19853,98.054901 130.93408,97.985623 C 128.48024,97.114594 128.44887,93.771294 128.86838,91.61521 C 129.08354,89.875675 130.66362,88.670217 132.37035,88.999583 C 138.91479,88.997194 145.45923,88.994805 152.00368,88.992416 C 154.56307,89.771619 152.8666,94.307531 156.00668,93.508115 C 157.42157,93.196068 156.71722,91.508359 156.90109,90.466476 C 156.34312,88.712439 158.17221,88.271717 159.57728,88.648136 C 160.50186,89.079881 159.85492,90.504227 160.05422,91.382109 C 159.29099,93.207947 162.38687,94.466273 162.77565,92.516365 C 162.73957,89.680348 162.66172,86.843664 162.65198,84.008066 C 163.66308,82.340346 166.42922,83.477192 165.7753,85.394357 C 165.79632,87.762904 165.81735,90.131452 165.83838,92.5 C 174.8851,92.625 183.93182,92.75 192.97855,92.875 C 195.71987,91.657393 192.01928,90.472124 190.59351,90.935284 C 184.27671,90.742876 177.9555,90.700623 171.64016,90.46967 C 169.41019,89.407919 169.23161,84.5482 171.82942,83.916757 C 176.37913,83.736171 180.92884,83.555586 185.47855,83.375 z "
       style="fill:#002255;fill-opacity:1;fill-rule:evenodd;stroke:none;stroke-width:1px;stroke-linecap:butt;stroke-linejoin:miter;stroke-opacity:1" />
    <path
       id="rect11142"
       d="M 131.60355,91.625 L 141.54105,91.240197 L 151.47855,91.5625 C 151.91742,92.21875 152.02601,92.654029 151.9264,93.089308 C 151.82678,93.524587 151.51896,93.959866 151.125,94.616116 L 141.27589,94.647366 L 131.78033,94.325063 C 131.2522,94.277965 130.99363,93.587012 130.97428,92.915801 C 130.95494,92.244591 131.1748,91.593125 131.60355,91.625 z "
       style="fill:#ffffff;fill-opacity:1;stroke:none;stroke-width:0.5;stroke-linejoin:round;stroke-miterlimit:4;stroke-opacity:1" />
    <path
       id="path11145"
       d="M 162.10356,99.499995 C 162.10356,100.604 161.20756,101.5 160.10356,101.5 C 158.99956,101.5 158.10356,100.604 158.10356,99.499995 C 158.10356,98.395995 158.99956,97.499995 160.10356,97.499995 C 161.20756,97.499995 162.10356,98.395995 162.10356,99.499995 z "
       style="fill:#002255;fill-opacity:1;stroke:none;stroke-width:0.5;stroke-linejoin:round;stroke-miterlimit:4;stroke-opacity:1" />
    <path
       id="path12117"
       d="M 157.60356,99.499995 C 157.60356,100.604 156.70756,101.5 155.60356,101.5 C 154.49956,101.5 153.60356,100.604 153.60356,99.499995 C 153.60356,98.395995 154.49956,97.499995 155.60356,97.499995 C 156.70756,97.499995 157.60356,98.395995 157.60356,99.499995 z "
       style="fill:#002255;fill-opacity:1;stroke:none;stroke-width:0.5;stroke-linejoin:round;stroke-miterlimit:4;stroke-opacity:1" />
    <path
       id="path12119"
       d="M 143.47856,86.624995 C 143.47856,87.729 142.58256,88.625 141.47856,88.625 C 140.37456,88.625 139.47856,87.729 139.47856,86.624995 C 139.47856,85.520995 140.37456,84.624995 141.47856,84.624995 C 142.58256,84.624995 143.47856,85.520995 143.47856,86.624995 z "
       style="fill:#002255;fill-opacity:1;stroke:none;stroke-width:0.5;stroke-linejoin:round;stroke-miterlimit:4;stroke-opacity:1" />
    <path
       id="path12121"
       d="M 138.97856,86.624995 C 138.97856,87.729 138.08256,88.625 136.97856,88.625 C 135.87456,88.625 134.97856,87.729 134.97856,86.624995 C 134.97856,85.520995 135.87456,84.624995 136.97856,84.624995 C 138.08256,84.624995 138.97856,85.520995 138.97856,86.624995 z "
       style="fill:#002255;fill-opacity:1;stroke:none;stroke-width:0.5;stroke-linejoin:round;stroke-miterlimit:4;stroke-opacity:1" />
    <path
       id="path12123"
       d="M 125.85355,84.125 L 126.10355,98 C 126.02657,99.023975 123.38634,99.023974 123.35355,98 L 123.35355,84 C 123.33073,83.201907 125.84869,82.958183 125.85355,84.125 z "
       style="fill:#002255;fill-opacity:1;fill-rule:evenodd;stroke:none;stroke-width:1px;stroke-linecap:butt;stroke-linejoin:miter;stroke-opacity:1" />
    <path
       id="path12125"
       d="M 121.14774,84.03791 C 121.17468,88.025274 121.20162,92.012637 121.22855,96 C 120.25313,97.798541 118.10246,98.405054 116.1857,98.234834 C 115.09773,98.234834 114.00976,98.234833 112.92179,98.234833 C 111.49718,99.457569 109.31213,99.701995 107.78192,98.513205 C 107.12296,98.10093 106.24735,98.392548 105.49049,98.298352 C 98.87371,98.268201 92.257001,98.211557 85.640167,98.199524 C 85.584722,99.329028 85.584441,100.46339 85.492631,101.58969 C 84.724146,102.61472 81.836597,102.57424 81.885979,100.95465 C 81.87517,99.928103 81.864362,98.901552 81.853554,97.875 C 80.109457,97.818421 78.343296,98.000232 76.615963,97.760015 C 74.636182,97.019255 75.330336,94.469462 75.925354,92.962114 C 76.704899,91.256779 77.526034,89.199664 79.386104,88.457234 C 80.835484,87.922038 82.851005,88.268543 83.441157,89.858444 C 84.120289,91.082405 84.799421,92.306366 85.478554,93.530327 C 89.255923,93.515597 93.033292,93.500867 96.810661,93.486137 C 96.849608,90.296785 96.822161,87.102777 96.902543,83.91633 C 97.399711,82.799805 99.819443,82.977169 99.562098,84.435521 C 99.583065,87.483948 99.604033,90.532376 99.625,93.580803 C 101.38258,93.57871 103.14016,93.576617 104.89774,93.574524 C 104.89774,92.059792 104.89774,90.545059 104.89774,89.030327 C 106.80295,89.251032 107.84714,87.437961 109.02594,86.442025 C 110.50485,85.162163 112.55563,86.22539 113.2647,87.771432 C 113.717,89.005088 115.97788,88.505769 115.74205,89.820785 C 115.72744,91.098966 115.71283,92.377146 115.69822,93.655327 C 116.6936,93.63092 117.68897,93.606514 118.68435,93.582108 C 118.73766,90.356096 118.7393,87.126871 118.82488,83.902867 C 119.12719,83.028235 121.05677,83.026048 121.14774,84.03791 z "
       style="fill:#002255;fill-opacity:1;fill-rule:evenodd;stroke:none;stroke-width:1px;stroke-linecap:butt;stroke-linejoin:miter;stroke-opacity:1" />
    <path
       id="path12127"
       d="M 82.422133,92.610442 C 82.514353,95.806302 80.025361,95.849615 78.70047,95.907873 C 77.629005,95.954987 77.24407,95.044676 77.649163,93.140771 C 77.992877,91.78081 79.267023,90.157664 80.389201,90.157664 C 81.51138,90.157664 82.422133,91.207718 82.422133,92.610442 z "
       style="fill:#ffffff;fill-opacity:1;stroke:none;stroke-width:0.5;stroke-linejoin:round;stroke-miterlimit:4;stroke-opacity:1" />
    <path
       id="path14068"
       d="M 113.18755,91.305144 C 113.23366,92.903074 113.67641,94.699631 112.70986,94.760821 C 111.51784,94.836285 109.25962,94.787754 108.59717,94.816883 C 107.52571,94.863997 107.37913,92.797436 107.78422,90.893531 C 108.12794,89.53357 109.27708,88.660424 110.39926,88.660424 C 111.52144,88.660424 113.18755,89.90242 113.18755,91.305144 z "
       style="fill:#ffffff;fill-opacity:1;stroke:none;stroke-width:0.5;stroke-linejoin:round;stroke-miterlimit:4;stroke-opacity:1" />
    <path
       id="path14070"
       d="M 71.728553,91 C 73.299846,93.313299 73.688226,95.519061 71.603553,97.5 C 69.603553,98.98866 67.603553,98.003703 65.603553,98 L 65.978553,102 C 66.441456,102.67542 63.391906,103.84664 62.853553,102 L 62.853553,91.25 C 62.649525,89.30889 71.280729,88.333705 71.728553,91 z "
       style="fill:#002255;fill-opacity:1;fill-rule:evenodd;stroke:none;stroke-width:1px;stroke-linecap:butt;stroke-linejoin:miter;stroke-opacity:1" />
    <path
       id="path15041"
       d="M 70.525686,92.977859 C 71.908221,96.387093 69.056314,96.414175 68.085654,96.452067 C 64.064124,96.229334 63.613489,91.595346 67.858871,91.282664 C 68.980457,91.319142 69.906968,91.575135 70.525686,92.977859 z "
       style="fill:#ffffff;fill-opacity:1;stroke:none;stroke-width:0.5;stroke-linejoin:round;stroke-miterlimit:4;stroke-opacity:1" />
    <path
       id="path15043"
       d="M 60.103554,89.75 C 60.078519,88.03303 57.163585,88.152494 57.226062,89.822238 C 57.185226,91.006492 57.14439,92.190746 57.103554,93.375 C 52.353554,93.375 47.603554,93.375 42.853554,93.375 C 42.848456,92.185184 42.844448,90.995361 42.838669,89.805548 C 42.191265,88.980992 40.052834,88.76594 39.728774,89.983885 C 39.711875,91.114257 39.694976,92.244628 39.678078,93.375 C 38.745055,93.291932 36.643756,94.055759 36.835133,92.610515 C 36.610715,90.213562 34.297022,87.838534 32.042637,88.212071 C 30.26365,88.460113 28.146923,90.313108 27.562209,92.123489 C 26.836008,93.742264 26.640335,96.412578 28.138211,97.490215 C 30.565721,97.730036 32.180859,97.860086 34.228553,97.875 C 34.287821,99.698774 34.658504,100.77754 34.758379,102.59813 C 35.305483,103.69748 37.776829,103.64776 37.82799,102.23047 C 37.794845,100.52864 37.761699,98.826822 37.728554,97.125 C 43.496125,97.136887 49.26607,97.101206 55.032154,97.142876 C 56.601744,97.212325 58.438666,97.026215 59.557933,95.799865 C 60.062846,95.053711 59.823848,94.097606 59.940868,93.247725 C 59.995097,92.081817 60.049325,90.915908 60.103554,89.75 z "
       style="fill:#002255;fill-opacity:1;fill-rule:evenodd;stroke:none;stroke-width:1px;stroke-linecap:butt;stroke-linejoin:miter;stroke-opacity:1" />
    <path
       id="path15045"
       d="M 34.184843,92.448831 C 34.258662,95.850436 31.316019,95.640761 30.176568,95.819485 C 29.117022,95.985676 28.79209,94.602735 29.197183,92.69883 C 29.540897,91.338869 30.764568,90.437995 31.886746,90.437995 C 33.008925,90.437995 34.184843,91.046107 34.184843,92.448831 z "
       style="fill:#ffffff;fill-opacity:1;stroke:none;stroke-width:0.5;stroke-linejoin:round;stroke-miterlimit:4;stroke-opacity:1" />
    <path
       id="path15047"
       d="M 45.430944,86.064966 C 45.430944,87.168971 44.534944,88.064971 43.430944,88.064971 C 42.326944,88.064971 41.430944,87.168971 41.430944,86.064966 C 41.430944,84.960966 42.326944,84.064966 43.430944,84.064966 C 44.534944,84.064966 45.430944,84.960966 45.430944,86.064966 z "
       style="fill:#002255;fill-opacity:1;stroke:none;stroke-width:0.5;stroke-linejoin:round;stroke-miterlimit:4;stroke-opacity:1" />
    <path
       id="path15049"
       d="M 40.930944,86.064966 C 40.930944,87.168971 40.034944,88.064971 38.930944,88.064971 C 37.826944,88.064971 36.930944,87.168971 36.930944,86.064966 C 36.930944,84.960966 37.826944,84.064966 38.930944,84.064966 C 40.034944,84.064966 40.930944,84.960966 40.930944,86.064966 z "
       style="fill:#002255;fill-opacity:1;stroke:none;stroke-width:0.5;stroke-linejoin:round;stroke-miterlimit:4;stroke-opacity:1" />
    <path
       id="path15051"
       d="M 59.657603,99.749364 C 59.657603,100.85337 58.761603,101.74937 57.657603,101.74937 C 56.553603,101.74937 55.657603,100.85337 55.657603,99.749364 C 55.657603,98.645364 56.553603,97.749364 57.657603,97.749364 C 58.761603,97.749364 59.657603,98.645364 59.657603,99.749364 z "
       style="fill:#002255;fill-opacity:1;stroke:none;stroke-width:0.5;stroke-linejoin:round;stroke-miterlimit:4;stroke-opacity:1" />
    <path
       id="path15055"
       d="M 25.916054,90.532173 C 25.853554,92.26134 25.791054,93.990506 25.728554,95.719673 C 25.267192,96.896857 24.050392,97.616639 22.802963,97.58347 C 17.460681,97.565229 12.117383,97.437257 6.7741912,97.469673 C 5.8214786,97.469673 4.8687659,97.469673 3.9160533,97.469673 C 3.89522,98.678006 3.8743866,99.88634 3.8535533,101.09467 C 3.4228764,101.98123 2.1714368,101.8336 1.3893429,101.54606 C 0.68037078,101.35357 0.88031901,100.60498 0.85846944,100.06512 C 0.8776641,96.533303 0.89685875,93.001488 0.91605341,89.469673 C 1.1103251,88.345948 3.4406701,88.399095 3.2937032,89.639255 C 3.3136532,90.916061 3.3336033,92.192867 3.3535533,93.469673 C 3.89522,93.490506 4.4368866,93.51134 4.9785533,93.532173 C 4.9448301,92.165831 4.872302,90.798936 4.8633002,89.432945 C 5.2986644,88.55504 7.1109467,88.553007 7.3544507,89.588698 C 7.3749849,90.882357 7.3955191,92.176015 7.4160533,93.469673 C 7.9368868,93.490506 8.4577203,93.51134 8.9785538,93.532173 C 8.9577204,92.19884 8.9368871,90.865506 8.9160538,89.532173 C 9.2106028,88.623545 10.482633,88.60494 11.259338,88.847686 C 12.062033,89.090188 11.817938,89.978614 11.870601,90.606206 C 11.885752,91.560695 11.900902,92.515184 11.916053,93.469673 C 15.20772,93.44884 18.499387,93.428006 21.791054,93.407173 C 21.791054,92.19884 21.791054,90.990506 21.791054,89.782173 C 22.339352,88.883876 23.686501,88.844276 24.61832,89.067588 C 25.296986,89.253494 25.813832,89.834503 25.916054,90.532173 z "
       style="fill:#002255;fill-opacity:1;fill-rule:evenodd;stroke:none;stroke-width:1px;stroke-linecap:butt;stroke-linejoin:miter;stroke-opacity:1" />
    <path
       id="path15057"
       d="M 25.743444,86.002466 C 25.743444,87.106471 24.847444,88.002471 23.743444,88.002471 C 22.639444,88.002471 21.743444,87.106471 21.743444,86.002466 C 21.743444,84.898466 22.639444,84.002466 23.743444,84.002466 C 24.847444,84.002466 25.743444,84.898466 25.743444,86.002466 z "
       style="fill:#002255;fill-opacity:1;stroke:none;stroke-width:0.5;stroke-linejoin:round;stroke-miterlimit:4;stroke-opacity:1" />
    <path
       id="flowRoot15059"
       d="M 3.1191411,115.57227 C 3.1191411,112.68165 3.1191411,109.79102 3.1191411,106.90039 C 4.5145283,106.66229 10.209528,106.95897 6.8090912,107.82031 C 3.9504538,106.15725 3.103137,111.46812 5.8906129,110.72656 C 10.367706,111.86368 3.0642046,110.64623 4.3496089,113.17578 C 4.1063139,114.31188 5.133327,116.18552 3.1191411,115.57227 z M 8.5449219,115.57227 C 9.6914063,112.68165 10.837891,109.79102 11.984375,106.90039 C 14.462899,106.68661 14.070329,110.67638 15.305336,112.28322 C 17.191569,114.54945 15.814717,117.45434 14.555698,113.7793 C 13.207037,112.41215 9.5974265,112.80602 9.6875,115.57227 C 9.3066406,115.57227 8.9257812,115.57227 8.5449219,115.57227 z M 11,112.25586 C 14.674939,113.17333 13.682575,110.91612 12.482422,108.51758 C 11.988281,109.76367 11.494141,111.00977 11,112.25586 z M 24.353516,115.12695 C 17.703711,119.62289 14.064191,106.60319 21.617188,106.68359 C 26.881153,107.5448 23.132086,108.07096 20.249754,107.86792 C 15.691732,111.15847 21.146357,116.66186 24.353516,114.45752 L 24.353516,114.84277 L 24.353516,115.12695 z M 26.064453,106.90039 C 28.608858,106.59036 26.710452,110.72314 27.294922,112.37305 C 29.185649,118.43417 32.434783,111.52558 31.208984,108.1763 C 31.937429,104.53768 32.715902,109.95742 32.287109,111.5234 C 33.684203,117.63363 23.999559,116.49866 26.064453,110.82033 C 26.064453,109.51368 26.064453,108.20704 26.064453,106.90039 z M 34.455078,115.57227 C 34.455078,112.68165 34.455078,109.79102 34.455078,106.90039 C 37.031434,106.66045 35.079087,110.9492 35.685547,112.67916 C 34.214476,116.36557 39.502889,113.2925 39.587891,115.42285 C 38.20722,115.76351 36.078153,115.47802 34.455078,115.57227 z M 42.916016,115.57227 C 42.916016,112.98829 42.916016,110.4043 42.916016,107.82031 C 39.283026,108.43271 39.25173,106.24676 42.921852,106.90039 C 44.57483,106.42798 49.639564,107.37762 45.681652,107.82031 C 42.74644,107.32308 44.718831,111.73345 44.146484,113.59908 C 43.954729,114.80719 44.854217,116.02907 42.916016,115.57227 z M 48.447266,115.57227 C 48.447266,112.68165 48.447266,109.79102 48.447266,106.90039 C 49.842653,106.66229 55.537652,106.95897 52.137216,107.82031 C 49.341177,106.16604 48.392913,111.37085 51.218738,110.60352 C 55.683944,111.74037 48.389278,110.52357 49.677734,113.05272 C 48.411286,116.44808 53.913634,113.07465 53.544922,115.57227 C 51.845703,115.57227 50.146484,115.57227 48.447266,115.57227 z M 58.759766,115.57227 C 58.759766,112.68165 58.759766,109.79102 58.759766,106.90039 C 64.371488,104.92255 69.437819,112.51316 63.110348,115.41699 C 61.671427,115.67142 60.210773,115.54011 58.759766,115.57227 z M 59.990234,114.65234 C 65.696698,116.52642 66.484315,106.19707 60.233404,107.82031 C 59.676036,109.56404 60.14566,112.50054 59.990234,114.65234 z M 67.759766,115.57227 C 67.759766,112.68165 67.759766,109.79102 67.759766,106.90039 C 69.155153,106.66229 74.850152,106.95897 71.449716,107.82031 C 68.653677,106.16604 67.705413,111.37085 70.531238,110.60352 C 74.996444,111.74037 67.701778,110.52357 68.990234,113.05272 C 67.723786,116.44808 73.226134,113.07465 72.857422,115.57227 C 71.158203,115.57227 69.458984,115.57227 67.759766,115.57227 z M 73.742188,115.4082 C 73.029418,113.37063 81.018407,115.84118 76.402344,111.82227 C 70.320482,110.59659 77.221282,103.43156 78.482422,108.14258 C 72.780468,106.24861 76.391826,111.21659 78.920406,112.58545 C 79.705068,115.6911 75.863942,116.33659 73.742188,115.4082 z M 84.007813,115.4082 C 83.295044,113.37063 91.284028,115.84118 86.66797,111.82227 C 80.586104,110.59659 87.486912,103.43155 88.748047,108.14258 C 83.046094,106.24861 86.657445,111.21659 89.186029,112.58545 C 89.970699,115.6911 86.129556,116.33659 84.007813,115.4082 z M 97.525391,115.12695 C 90.875587,119.62289 87.236067,106.60319 94.78906,106.68359 C 100.05302,107.5448 96.303964,108.07096 93.421629,107.86792 C 88.863606,111.15847 94.318229,116.66186 97.52539,114.45752 L 97.52539,114.84277 L 97.525391,115.12695 z M 99.300781,115.57227 C 99.300781,112.68165 99.300781,109.79102 99.300781,106.90039 C 101.87714,106.66045 99.92479,110.9492 100.53125,112.67916 C 100.21959,113.86408 101.42769,116.21298 99.300781,115.57227 z M 102.77539,115.57227 C 102.77539,112.68165 102.77539,109.79102 102.77539,106.90039 C 104.17078,106.66229 109.86578,106.95897 106.46534,107.82031 C 103.6693,106.16604 102.72104,111.37085 105.54686,110.60352 C 110.01207,111.74037 102.7174,110.52357 104.00586,113.05272 C 102.73941,116.44808 108.24176,113.07465 107.87305,115.57227 C 106.17383,115.57227 104.47461,115.57227 102.77539,115.57227 z M 109.29102,115.57227 C 109.29102,112.68165 109.29102,109.79102 109.29102,106.90039 C 111.71905,106.7169 112.10578,110.30053 113.65351,111.74159 C 115.54177,115.68876 114.67923,110.37789 114.86328,108.58939 C 115.11946,104.49248 116.55724,109.23935 115.91797,111.13815 C 116.07326,112.79831 116.25244,117.65323 114.08511,114.60442 C 112.91105,113.06647 111.16774,109.61479 110.3457,109.26025 C 109.85846,111.13385 111.34037,114.9766 109.5752,115.57227 L 109.29102,115.57227 z M 124.66602,115.12695 C 118.01622,119.6229 114.37669,106.60319 121.92969,106.68359 C 127.19366,107.54481 123.44458,108.07096 120.56225,107.86792 C 116.00423,111.15848 121.45886,116.66186 124.66602,114.45752 L 124.66602,114.84277 L 124.66602,115.12695 z M 126.44727,115.57227 C 126.44727,112.68165 126.44727,109.79102 126.44727,106.90039 C 127.84266,106.66229 133.53765,106.95897 130.13722,107.82031 C 127.34118,106.16604 126.3929,111.37084 129.21873,110.60352 C 133.68395,111.74037 126.38927,110.52357 127.67773,113.05272 C 126.41128,116.44808 131.91363,113.07465 131.54492,115.57227 C 129.84571,115.57227 128.14649,115.57227 126.44727,115.57227 z M 132.42969,115.4082 C 131.71692,113.37063 139.70591,115.84118 135.08984,111.82227 C 129.00798,110.59658 135.90878,103.43156 137.16992,108.14258 C 131.46797,106.24861 135.07933,111.21659 137.60791,112.58545 C 138.39256,115.6911 134.55145,116.33659 132.42969,115.4082 z M 143.22852,115.57227 C 143.22852,112.68165 143.22852,109.79102 143.22852,106.90039 C 148.84024,104.92255 153.90656,112.51316 147.5791,115.41699 C 146.14018,115.67142 144.67952,115.54011 143.22852,115.57227 z M 144.45898,114.65234 C 150.16545,116.52642 150.95306,106.19708 144.70216,107.82031 C 144.14478,109.56403 144.61441,112.50054 144.45898,114.65234 z M 152.22852,115.57227 C 152.22852,112.68165 152.22852,109.79102 152.22852,106.90039 C 153.6239,106.66229 159.3189,106.95897 155.91847,107.82031 C 153.12243,106.16604 152.17416,111.37085 154.99999,110.60352 C 159.46519,111.74037 152.17053,110.52357 153.45898,113.05272 C 152.19254,116.44808 157.69488,113.07465 157.32617,115.57227 C 155.62695,115.57227 153.92773,115.57227 152.22852,115.57227 z M 164.60352,115.57227 C 164.60352,112.98829 164.60352,110.4043 164.60352,107.82031 C 160.97053,108.43271 160.93923,106.24676 164.60935,106.90039 C 166.26233,106.42798 171.32706,107.37762 167.36915,107.82031 C 164.43394,107.32308 166.40633,111.73345 165.83398,113.59908 C 165.64223,114.80719 166.54172,116.02907 164.60352,115.57227 z M 170.06445,106.90039 C 172.60886,106.59036 170.71045,110.72314 171.29492,112.37305 C 173.18566,118.43417 176.43478,111.52558 175.20898,108.1763 C 175.93743,104.53768 176.7159,109.95742 176.28711,111.5234 C 177.6842,117.63363 167.99956,116.49866 170.06445,110.82033 C 170.06445,109.51368 170.06445,108.20704 170.06445,106.90039 z M 178.45508,115.57227 C 178.45508,112.68165 178.45508,109.79102 178.45508,106.90039 C 180.88311,106.71689 181.26984,110.30053 182.81757,111.74159 C 184.70583,115.68876 183.8433,110.37789 184.02734,108.58939 C 184.28353,104.49248 185.7213,109.23935 185.08203,111.13815 C 185.23732,112.79831 185.4165,117.65323 183.24917,114.60442 C 182.07512,113.06647 180.3318,109.61479 179.50977,109.26025 C 179.02252,111.13385 180.50443,114.9766 178.73926,115.57227 L 178.45508,115.57227 z M 187.30859,115.57227 C 187.30859,112.68165 187.30859,109.79102 187.30859,106.90039 C 189.88495,106.66045 187.9326,110.9492 188.53906,112.67916 C 188.2274,113.86408 189.4355,116.21298 187.30859,115.57227 z M 190.25,115.4082 C 189.53723,113.37063 197.52622,115.84118 192.91016,111.82227 C 186.8283,110.5966 193.72908,103.43155 194.99023,108.14258 C 189.28828,106.24861 192.89964,111.21659 195.42822,112.58545 C 196.21289,115.6911 192.37175,116.33659 190.25,115.4082 z "
       style="fill:#002255;fill-opacity:1" />
  </g>
</svg>
